# xmcd
#
# Track frame offsets: 
#        150
#        18005
#        37286
#        57541
#        73820
#        88001
#        100907
#        116513
#        134818
#        142173
#        148404
#        155160
#        164841
#        174371
#        182851
#        193731
#        199737
#        205368
#        224573
#        239953
#        253832
#
# Disc length: 3566 seconds
#
# Revision: 0
# Processed by: cddbd v1.5.2PL0 Copyright (c) Steve Scherf et al.
# Submitted via: ExactAudioCopy v0.95b3
#
DISCID=6b0dec15
DTITLE=The Who  - Endless Wire
DYEAR=1900
DGENRE=
TTITLE0=Fragments
TTITLE1=A Man In A Purple Dress
TTITLE2=Mike Post Theme
TTITLE3=In The Ether
TTITLE4=Black Widow's Eyes
TTITLE5=Two Thousand Years
TTITLE6=God Speaks, Of Marty Robbins
TTITLE7=It's Not Enough
TTITLE8=You Stand By Me
TTITLE9=Sound Round
TTITLE10=Pick Up The Peace
TTITLE11=Unholy Trinity
TTITLE12=Trilby's Piano
TTITLE13=Endless Wire
TTITLE14=Fragments Of Fragments
TTITLE15=We Got A Hit
TTITLE16=They Make My Dream Come True
TTITLE17=Mirror Door
TTITLE18=Tea and Theatre
TTITLE19=We Got A Hit [Extended Version]
TTITLE20=Endless Wire [Extended Version]
EXTD=
EXTT0=
EXTT1=
EXTT2=
EXTT3=
EXTT4=
EXTT5=
EXTT6=
EXTT7=
EXTT8=
EXTT9=
EXTT10=
EXTT11=
EXTT12=
EXTT13=
EXTT14=
EXTT15=
EXTT16=
EXTT17=
EXTT18=
EXTT19=
EXTT20=
PLAYORDER=
